<svg width="201" height="52" viewBox="0 0 201 52" fill="none" xmlns="http://www.w3.org/2000/svg">
    <g clip-path="url(#clip0)">
        <path d="M88.9316 33.4863C89.8215 33.4863 90.7114 33.57 91.5457 33.7651C91.8515 33.8488 92.1574 33.6257 92.1574 33.2912C92.1574 28.1887 95.4666 24.6477 100.333 24.6477C104.838 24.6477 107.98 27.659 108.453 32.1201C108.509 32.5941 108.982 32.8729 109.399 32.7056C110.177 32.3989 111.012 32.2316 111.874 32.1759H111.957C114.154 32.0365 116.267 32.8172 117.853 34.267C118.464 34.7968 119.41 34.4064 119.41 33.5979C119.41 33.4863 119.41 33.3748 119.41 33.2912C119.41 20.1308 109.955 14.5823 102.419 14.5823C99.7492 14.5823 97.3854 15.2236 95.4945 16.311C94.0762 17.1475 92.2687 16.1437 92.2409 14.4987L92.1574 5.38124C92.1574 2.34209 89.6547 -0.111525 86.5679 2.90619e-06C83.648 0.111531 81.3955 2.59303 81.3955 5.52065V32.9287C81.3955 34.1555 81.479 35.3265 81.6458 36.4697C81.757 37.1946 82.6191 37.5013 83.1475 36.9995C84.5379 35.6332 85.678 33.4863 88.9316 33.4863Z" fill="white"/>
        <path d="M5.36704 0C8.34256 0 10.7619 2.42574 10.7619 5.38123L10.8453 14.4987C10.8731 16.1437 12.6529 17.1475 14.0989 16.311C15.9899 15.2236 18.3536 14.5823 21.0232 14.5823C28.5594 14.5823 38.0143 20.1308 38.0143 33.2912C38.0143 44.0815 30.1166 52 18.9376 52C7.75858 52 0 44.5834 0 32.9287V5.38123C0 2.42574 2.41934 0 5.36704 0ZM27.1133 33.2912C27.1133 28.1887 23.8041 24.6477 18.9376 24.6477C14.0711 24.6477 10.7619 28.1609 10.7619 33.2912C10.7619 38.4214 14.0711 41.9346 18.9376 41.9346C23.8041 41.9346 27.1133 38.3936 27.1133 33.2912Z" fill="white"/>
        <path d="M51.9741 36.3303V36.4697C52.9196 40.3453 55.8395 42.3807 59.8717 42.3807C62.5414 42.3807 64.627 41.8788 66.0452 40.4847C66.4902 40.0386 67.1298 39.7877 67.7694 39.7877H73.9429C75.8895 39.7877 77.0574 41.9067 76.0563 43.5796C72.9139 48.7657 67.102 52.0279 59.8996 52.0279C48.7205 52.0279 40.8229 44.1094 40.8229 33.319C40.8229 22.5287 48.7205 14.6102 59.8996 14.6102C71.0786 14.6102 78.7537 22.5287 78.7537 33.319V33.8488C78.7537 35.215 77.6414 36.3303 76.2788 36.3303H51.9741ZM52.1966 29.3319V29.4713H67.6859V29.3319C66.4624 25.9582 63.5981 24.2295 59.8717 24.2295C56.1454 24.2295 53.3367 25.9582 52.1966 29.3319Z" fill="white"/>
        <path d="M133.509 36.3303V36.4697C134.454 40.3453 137.374 42.3807 141.406 42.3807C144.076 42.3807 146.162 41.8788 147.58 40.4847C148.025 40.0386 148.664 39.7877 149.304 39.7877H155.45C157.396 39.7877 158.564 41.9067 157.563 43.5796C154.421 48.7657 148.609 52.0279 141.406 52.0279C130.227 52.0279 122.33 44.1094 122.33 33.319C122.33 22.5287 130.227 14.6102 141.406 14.6102C152.585 14.6102 160.261 22.5287 160.261 33.319V33.8488C160.261 35.215 159.148 36.3303 157.786 36.3303H133.509ZM133.731 29.3319V29.4713H149.221V29.3319C147.997 25.9582 145.133 24.2295 141.406 24.2295C137.68 24.2295 134.871 25.9582 133.731 29.3319Z" fill="white"/>
        <path d="M174.22 36.3303V36.4697C175.166 40.3453 178.086 42.3807 182.118 42.3807C184.788 42.3807 186.873 41.8788 188.292 40.4847C188.736 40.0386 189.376 39.7877 190.016 39.7877H196.189C198.136 39.7877 199.304 41.9067 198.303 43.5796C195.16 48.7657 189.348 52.0279 182.146 52.0279C170.967 52.0279 163.069 44.1094 163.069 33.319C163.069 22.5287 170.967 14.6102 182.146 14.6102C193.325 14.6102 201 22.5287 201 33.319V33.8488C201 35.215 199.888 36.3303 198.525 36.3303H174.22ZM174.443 29.3319V29.4713H189.932V29.3319C188.709 25.9582 185.844 24.2295 182.118 24.2295C178.392 24.2295 175.583 25.9582 174.443 29.3319Z" fill="white"/>
        <path d="M112.013 34.9641C110.122 35.0756 108.453 36.1909 107.563 37.8638C106.229 40.3732 103.67 41.9346 100.444 41.9346C97.5245 41.9346 95.1886 40.6799 93.7703 38.5609C92.7136 37.0274 90.9339 36.163 89.0707 36.2467C84.8716 36.4697 82.5357 41.2933 85.0107 44.7228C88.3199 49.3512 93.7703 52 100.472 52C107.925 52 113.904 48.4869 117.074 42.9662C119.187 39.2858 116.323 34.741 112.124 34.9641H112.013Z" fill="white"/>
    </g>
    <defs>
        <clipPath id="clip0">
            <rect width="201" height="52" fill="white"/>
        </clipPath>
    </defs>
</svg>
