<svg width="66" height="90" viewBox="0 0 66 90" fill="none" xmlns="http://www.w3.org/2000/svg">
<path d="M16.4286 20.4V12.2C16.4286 10.0252 17.3015 7.93952 18.8554 6.40172C20.4093 4.86393 22.5168 4 24.7143 4H41.2857C43.4832 4 45.5907 4.86393 47.1446 6.40172C48.6985 7.93952 49.5714 10.0252 49.5714 12.2V20.4M62 20.4V77.8C62 79.9748 61.127 82.0605 59.5732 83.5983C58.0193 85.1361 55.9118 86 53.7143 86H12.2857C10.0882 86 7.9807 85.1361 6.42683 83.5983C4.87296 82.0605 4 79.9748 4 77.8V20.4H62Z" stroke="#E64747" stroke-width="8" stroke-linecap="round" stroke-linejoin="round"/>
<path d="M25 41V65" stroke="#E64747" stroke-width="8" stroke-linecap="round" stroke-linejoin="round"/>
<path d="M41 41V65" stroke="#E64747" stroke-width="8" stroke-linecap="round" stroke-linejoin="round"/>
</svg>
