<svg width="105" height="92" viewBox="0 0 105 92" fill="none" xmlns="http://www.w3.org/2000/svg">
<path d="M44.5621 8.46731L5.24415 74.0795C4.4335 75.4827 4.00458 77.0738 4.00004 78.6942C3.9955 80.3146 4.41551 81.908 5.21828 83.3158C6.02105 84.7237 7.1786 85.8968 8.57577 86.7186C9.97294 87.5404 11.561 87.9822 13.182 88H91.818C93.439 87.9822 95.0271 87.5404 96.4242 86.7186C97.8214 85.8968 98.9789 84.7237 99.7817 83.3158C100.584 81.908 101.005 80.3146 101 78.6942C100.995 77.0738 100.566 75.4827 99.7559 74.0795L60.4379 8.46731C59.6103 7.10359 58.4451 5.97608 57.0547 5.19358C55.6643 4.41108 54.0956 4 52.5 4C50.9044 4 49.3357 4.41108 47.9453 5.19358C46.5549 5.97608 45.3897 7.10359 44.5621 8.46731V8.46731Z" stroke="#943538" stroke-width="8" stroke-linecap="round" stroke-linejoin="round"/>
<path d="M52 33V51" stroke="#943538" stroke-width="8" stroke-linecap="round" stroke-linejoin="round"/>
<path d="M52 70H53" stroke="#943538" stroke-width="8" stroke-linecap="round" stroke-linejoin="round"/>
</svg>
