<svg width="970" height="708" viewBox="0 0 970 708" fill="none" xmlns="http://www.w3.org/2000/svg">
<path fill-rule="evenodd" clip-rule="evenodd" d="M547.493 3.47442C634.161 10.0613 710.304 42.5203 781.353 81.0826C853.222 120.09 939.589 159.534 956.869 225.667C973.847 290.647 884.346 341.997 866.467 406.835C845.018 484.624 908.372 577.064 842.951 638.81C776.454 701.57 653.042 706.753 547.493 707.889C440.735 709.038 322.57 702.147 245.936 645.236C171.923 590.271 175.039 501.404 163.788 422.936C154.737 359.805 169.06 299.875 187.543 237.961C208.119 169.033 206.934 88.5939 277.274 42.772C348.85 -3.85562 453.969 -3.63353 547.493 3.47442Z" fill="#2EFFC3"/>
<g clip-path="url(#clip0)">
<path d="M233.364 145.141C237.5 144.521 241.222 145.555 244.324 148.035C244.945 148.449 246.186 147.828 246.393 147.002C251.563 117.651 266.246 93.0534 280.929 90.5731C290.442 88.9195 297.68 96.774 301.402 110.209C301.609 111.243 303.47 110.623 303.677 109.589C304.711 104.008 306.159 98.2209 308.02 92.2266C318.774 58.5348 340.075 31.4574 355.585 31.4574C371.095 31.4574 374.818 58.7415 364.271 92.2266V92.4333C345.658 167.671 338.007 237.742 340.902 303.059C342.556 338.404 302.643 374.99 262.523 374.783C246.186 374.783 232.537 368.375 224.885 357.007C198.621 317.941 191.796 268.54 197.173 212.938C197.173 211.905 197.38 210.871 197.587 209.838C201.309 176.766 217.233 147.828 233.364 145.141Z" fill="#2E3A87"/>
<path d="M825.03 319.181L851.295 278.462L830.407 267.093L814.483 308.846L810.968 258.619L775.604 266.267L803.523 317.114C803.523 317.114 795.457 395.04 767.332 432.865C739.207 470.691 692.469 532.701 765.264 590.37C837.852 647.832 923.056 597.191 946.218 554.817C955.731 537.041 953.869 518.439 948.492 502.729C942.082 484.127 929.88 468.004 914.37 456.016C891.001 438.24 840.954 392.766 825.03 319.181Z" fill="white"/>
<path d="M814.897 318.561C814.69 318.148 813.243 317.528 813.243 318.561C817.172 358.867 825.858 401.861 828.546 442.58C831.855 491.154 857.706 553.371 906.718 554.404C954.076 555.437 826.478 371.269 814.897 318.561Z" fill="#4F5892"/>
<path d="M940.22 540.348C940.22 540.348 940.22 540.142 940.013 540.142C967.725 524.226 978.065 488.054 963.176 457.256C962.762 456.429 962.348 455.602 961.935 454.775C962.348 454.362 962.762 453.949 963.176 453.329C965.45 450.228 965.864 446.921 964.21 445.681C962.762 444.441 959.867 445.681 957.799 447.954C958.005 447.541 958.005 447.334 958.212 446.921C959.453 443.407 958.833 439.893 956.765 439.273C955.524 438.86 953.869 439.686 952.422 441.34C933.603 420.05 902.996 411.162 879.627 426.044C861.635 437.619 851.088 432.659 844.056 440.1C836.611 447.954 833.303 468.624 853.776 510.377C869.493 542.829 893.689 553.164 918.299 547.996C918.506 548.823 918.713 549.65 919.126 550.27C922.022 556.058 928.846 558.331 934.637 555.644C940.634 552.957 942.909 546.136 940.22 540.348Z" fill="#FFC5C2"/>
<path d="M887.072 459.943C885.417 460.77 883.349 460.15 882.522 458.496C881.695 456.842 882.315 454.775 884.176 453.949C885.831 453.122 887.899 453.742 888.726 455.602C888.933 456.222 889.14 456.842 889.14 457.463C888.726 457.256 888.312 457.256 887.899 457.463C887.072 457.876 886.865 458.703 887.278 459.323C887.278 459.53 887.485 459.736 887.692 459.736C887.485 459.736 887.278 459.943 887.072 459.943Z" fill="#2F2F42"/>
<path d="M908.579 504.176C906.925 505.003 904.857 504.383 904.03 502.729C903.202 501.076 903.823 499.009 905.684 498.182C907.338 497.355 909.407 497.975 910.234 499.836C910.441 500.456 910.647 501.076 910.647 501.696C910.234 501.489 909.82 501.489 909.407 501.696C908.579 502.109 908.372 502.936 908.786 503.556C908.786 503.763 908.993 503.97 909.2 503.97C908.993 503.97 908.786 503.97 908.579 504.176Z" fill="#2F2F42"/>
<path d="M934.016 544.689C933.396 543.862 932.362 543.449 931.328 543.656C931.328 543.242 931.121 543.036 930.914 542.622C930.707 542.209 929.88 542.415 930.087 543.036C930.501 543.656 930.914 544.482 930.087 545.102C929.88 545.309 929.466 545.516 929.053 545.723C928.432 545.929 928.019 545.929 927.605 545.309C927.192 544.896 926.571 545.516 926.985 545.929C927.398 546.343 927.812 546.756 928.432 546.756C929.053 546.756 929.88 546.343 930.294 545.929C930.914 545.516 931.121 545.102 931.121 544.689C931.948 544.482 932.569 544.689 933.189 545.309C933.603 545.723 934.223 545.102 934.016 544.689Z" fill="#FF8C94"/>
<path d="M-62.1592 326.416C-59.8844 326.416 -57.8163 327.656 -56.5755 329.516H99.5616C101.009 329.516 102.25 330.756 102.25 332.203C102.25 333.65 101.009 334.89 99.5616 334.89H-56.1619C-56.9892 337.164 -59.4708 338.818 -62.1592 338.818C-64.8477 338.818 -67.1225 337.164 -68.1566 334.89H-202.166C-194.307 346.466 -197.409 364.242 -197.616 365.068C-197.823 366.515 -199.27 367.549 -200.718 367.342C-202.166 367.135 -203.2 365.688 -202.993 364.242C-202.993 364.035 -200.718 350.186 -205.268 340.471C-205.681 346.672 -207.542 355.354 -213.126 365.275C-213.953 366.515 -215.608 367.135 -216.849 366.309C-217.676 365.895 -218.296 364.862 -218.296 363.828C-218.296 363.415 -218.09 363.001 -217.883 362.381C-211.265 350.599 -210.438 341.091 -210.645 336.544C-210.645 335.717 -210.438 334.89 -210.231 334.064C-209.817 333.03 -209.404 332.203 -208.577 331.583C-207.956 330.963 -207.336 330.55 -206.509 330.136C-205.475 329.723 -204.647 329.516 -203.406 329.516H-67.5362C-66.7089 327.656 -64.6409 326.416 -62.1592 326.416Z" fill="#F8A7A0"/>
<path d="M4.63858 225.754C5.4658 219.966 12.9107 218.106 16.4264 222.653C31.7299 242.703 51.5831 255.312 74.5383 262.959C84.2581 266.267 94.8051 265.233 103.698 260.066C132.03 243.116 168.014 233.195 207.1 233.195C242.67 233.195 275.759 241.463 302.85 255.725C330.769 261.513 355.999 271.641 376.265 284.869C397.98 298.925 424.037 304.919 449.681 300.785L499.727 292.931C511.515 291.07 519.994 280.942 519.994 269.16V268.954C519.994 218.106 561.148 176.973 611.815 176.973H612.022C614.297 176.973 616.365 175.733 617.399 173.666C618.226 172.012 619.467 170.359 620.708 168.705C626.292 162.091 633.53 159.197 637.045 162.091C638.079 163.124 638.7 164.571 638.907 166.225C638.907 167.672 640.354 168.498 641.802 167.878C647.799 165.191 653.59 165.191 655.658 168.292C657.933 171.806 654.831 178.006 648.626 182.554C648.213 182.761 648.213 183.174 648.213 183.587C648.213 184.001 648.42 184.207 648.833 184.414C681.508 198.676 704.257 231.128 704.05 268.954C703.843 318.148 664.757 358.661 615.538 360.521C604.991 360.934 594.651 359.488 585.138 356.594C570.454 352.046 554.737 351.22 539.641 353.7L495.798 360.728C463.537 365.895 434.791 385.325 419.281 414.056C393.223 462.423 326.219 501.076 247.633 501.076C246.599 501.076 245.565 501.076 244.531 501.076C244.324 501.076 243.911 501.076 243.704 501.076C243.084 501.076 242.67 501.076 242.05 501.076C241.843 501.076 241.636 501.076 241.429 501.076C240.395 501.076 239.361 501.076 238.327 501.076H238.12C237.086 501.076 236.052 501.076 235.018 500.869C234.811 500.869 234.398 500.869 234.191 500.869C233.364 500.869 232.743 500.869 232.123 500.662C231.916 500.662 231.503 500.662 231.296 500.662C231.089 500.662 230.882 500.662 230.882 500.662C214.545 499.422 198.828 496.735 183.938 492.394H183.731C182.904 492.188 182.283 491.981 181.456 491.774C181.249 491.774 181.249 491.774 181.042 491.774C179.388 491.361 177.734 490.741 176.079 490.327C144.438 480.199 115.486 463.87 90.669 442.787C79.7084 433.485 69.7819 423.357 60.4757 412.609C17.6672 361.554 -5.28801 294.378 4.63858 225.754Z" fill="white"/>
<path d="M678.314 324.478C670.249 299.674 701.89 293.266 703.337 255.854C703.337 253.58 706.026 252.133 708.094 253.58C757.52 289.339 817.493 305.875 881.189 316.003C882.223 316.21 882.636 317.037 882.43 317.863C790.195 335.019 725.879 335.019 678.314 324.478Z" fill="#F8A7A0"/>
<path d="M882.223 318.07C882.016 318.483 881.809 318.897 881.189 319.104C810.048 337.293 743.664 344.321 686.379 331.712C682.657 330.885 679.555 328.198 678.314 324.478C725.879 335.019 790.195 335.019 882.223 318.07Z" fill="#E5655B"/>
<path d="M638.493 295.824C618.163 295.824 601.682 279.352 601.682 259.032C601.682 238.712 618.163 222.24 638.493 222.24C658.823 222.24 675.304 238.712 675.304 259.032C675.304 279.352 658.823 295.824 638.493 295.824Z" fill="white"/>
<path d="M625.57 271.497C621.26 261.172 626.141 249.311 636.471 245.004C646.801 240.697 658.669 245.575 662.978 255.9C667.287 266.224 662.406 278.086 652.076 282.393C641.746 286.7 629.879 281.822 625.57 271.497Z" fill="#4F5892"/>
<path d="M-107.863 374.783C-105.588 374.783 -103.52 376.023 -102.279 377.884H53.858C55.3056 377.884 56.5464 379.124 56.5464 380.571C56.5464 382.018 55.3056 383.258 53.858 383.258H-101.865C-102.693 385.532 -105.174 387.185 -107.863 387.185C-110.551 387.185 -112.826 385.532 -113.86 383.258H-247.869C-240.011 394.833 -243.113 412.609 -243.319 413.436C-243.526 414.883 -244.974 415.916 -246.422 415.709C-247.869 415.503 -248.903 414.056 -248.696 412.609C-248.696 412.402 -246.422 398.553 -250.971 388.839C-251.385 395.04 -253.246 403.721 -258.83 413.642C-259.657 414.883 -261.311 415.503 -262.552 414.676C-263.379 414.263 -264 413.229 -264 412.196C-264 411.782 -263.793 411.369 -263.586 410.749C-256.969 398.967 -256.141 389.459 -256.348 384.911C-256.348 384.085 -256.141 383.258 -255.934 382.431C-255.521 381.398 -255.107 380.571 -254.28 379.951C-253.66 379.331 -253.039 378.917 -252.212 378.504C-251.178 378.09 -250.351 377.884 -249.11 377.884H-113.24C-112.206 376.023 -110.138 374.783 -107.863 374.783Z" fill="#F8A7A0"/>
<path d="M159.742 127.365C163.671 126.539 167.6 127.779 171.736 130.466C172.564 131.086 173.598 130.259 173.391 129.432C169.255 97.8075 176.079 71.3501 189.935 68.6631C198.828 67.0095 208.754 75.2774 216.613 89.7463C217.233 90.7798 218.888 90.3664 218.681 89.1262C217.854 83.1319 217.44 76.931 217.44 70.5233C217.44 34.3511 230.055 5 245.565 5C261.076 5 273.484 34.3511 273.691 70.3166V70.5233C279.274 151.549 293.958 226.994 317.74 297.271C330.562 335.304 302.437 374.783 262.317 374.576C245.979 374.576 230.262 367.549 219.094 355.56C180.215 313.394 157.674 260.272 145.265 200.33C145.059 199.296 144.852 198.056 144.645 197.023C137.82 161.677 144.645 130.466 159.742 127.365Z" fill="#4F5892"/>
</g>
<defs>
<clipPath id="clip0">
<rect width="1234" height="611" fill="white" transform="matrix(-1 0 0 1 970 5)"/>
</clipPath>
</defs>
</svg>
