<svg width="572" height="477" viewBox="0 0 572 477" fill="none" xmlns="http://www.w3.org/2000/svg">
<path fill-rule="evenodd" clip-rule="evenodd" d="M275.33 41.3591C324.087 46.4184 374.842 22.27 418.944 41.8669C466.593 63.0395 494.906 106.798 519.189 149.718C547.717 200.14 580.17 253.121 570.139 309.102C559.397 369.049 521.488 427.577 463.907 458.234C408.223 487.881 338.92 475.913 275.33 466.063C221.063 457.658 174.348 433.616 128.234 406.241C79.433 377.272 10.1002 355.47 0.807917 303.1C-8.62318 249.947 67.2586 216.919 85.5576 165.721C103.84 114.569 57.8435 40.7933 105.791 9.37241C153.811 -22.096 216.549 35.2597 275.33 41.3591Z" fill="#2EFFC3"/>
<g clip-path="url(#clip0)">
<path d="M463.035 334.025C456.82 336.46 449.145 335.166 444.225 329.926C441.846 327.513 386.299 272.338 292.257 309.184C197.387 346.355 194.918 426.65 194.828 427.641C194.76 437.225 186.855 445.101 177.108 444.619C167.524 444.551 159.648 436.645 160.13 426.899C160.327 422.521 163.184 322.481 279.597 276.87C396.009 231.259 466.48 302.569 469.184 305.811C475.744 312.798 475.749 323.787 468.762 330.348C467.177 332.402 465.106 333.214 463.035 334.025Z" fill="white"/>
<path d="M89.7709 281.474C83.971 283.746 77.4491 282.957 72.439 278.707C64.7979 272.621 63.8023 261.542 69.4739 254.064L113.407 199.098L44.2422 188.445C34.5854 186.972 27.7898 178.165 29.4252 168.923C30.8983 159.266 39.7048 152.47 49.3616 153.943L148.902 168.943C155.01 169.895 160.434 173.982 162.707 179.782C164.979 185.582 164.189 192.104 159.94 197.114L97.2449 276.156C95.2462 278.373 92.6709 280.338 89.7709 281.474Z" fill="white"/>
<path d="M421.196 151.621C418.296 152.757 415.486 152.902 412.099 152.796L312.81 137.219C306.703 136.267 301.278 132.18 299.006 126.38C296.734 120.58 297.523 114.058 301.773 109.048L364.63 30.4207C370.716 22.7796 381.795 21.784 389.274 27.4556C396.915 33.5414 397.91 44.6204 392.239 52.0991L348.305 107.065L417.885 117.555C427.541 119.029 433.923 127.997 432.45 137.654C431.246 144.338 426.996 149.348 421.196 151.621Z" fill="white"/>
</g>
<defs>
<clipPath id="clip0">
<rect width="391.105" height="320.804" fill="white" transform="translate(24.1086 161.449) rotate(-21.3954)"/>
</clipPath>
</defs>
</svg>
