<svg width="66" height="58" viewBox="0 0 66 58" fill="none" xmlns="http://www.w3.org/2000/svg">
<path d="M57.5277 8.42036C56.1105 7.01898 54.4278 5.9073 52.5758 5.14884C50.7238 4.39038 48.7387 4 46.7341 4C44.7294 4 42.7443 4.39038 40.8923 5.14884C39.0403 5.9073 37.3576 7.01898 35.9404 8.42036L32.9993 11.3274L30.0581 8.42036C27.1954 5.59099 23.3129 4.00147 19.2645 4.00147C15.2161 4.00147 11.3335 5.59099 8.47086 8.42036C5.60822 11.2497 4 15.0872 4 19.0885C4 23.0899 5.60822 26.9273 8.47086 29.7567L11.412 32.6637L32.9993 54L54.5865 32.6637L57.5277 29.7567C58.9455 28.356 60.0703 26.6928 60.8376 24.8624C61.605 23.0319 62 21.0699 62 19.0885C62 17.1071 61.605 15.1452 60.8376 13.3147C60.0703 11.4842 58.9455 9.82109 57.5277 8.42036V8.42036Z" stroke="#3F3356" stroke-width="8" stroke-linecap="round" stroke-linejoin="round"/>
</svg>
