<svg width="528" height="528" viewBox="0 0 528 528" fill="none" xmlns="http://www.w3.org/2000/svg">
<path d="M528 264C528 409.655 409.655 528 264 528C118.345 528 0 409.655 0 264C0 118.345 118.345 0 264 0C409.655 0 528 118.345 528 264Z" fill="white"/>
<path d="M319.075 106.966C306.786 101.959 292.22 107.876 287.669 120.621C282.662 132.911 288.579 147.476 301.324 152.028C344.11 169.324 386.441 215.752 384.165 271.738C382.344 306.786 366.413 338.649 339.558 360.042L332.731 335.007L256.717 411.021L360.041 438.331L352.303 410.111C399.186 380.98 429.682 329.545 431.958 274.014C435.144 204.828 387.806 134.731 319.075 106.966Z" fill="#516EB5"/>
<path d="M222.579 379.614C172.965 361.407 141.103 314.069 143.379 260.814C145.199 225.765 161.586 193.903 187.986 172.51L194.813 197.545L269.917 121.531L166.593 94.2205L174.33 122.441C127.448 151.572 96.9511 203.007 94.6753 258.538C91.4891 332.731 136.096 399.641 206.193 425.131C208.924 426.041 211.655 426.496 214.386 426.496C224.399 426.496 233.503 420.124 237.144 410.565C241.696 398.276 234.868 384.165 222.579 379.614Z" fill="#516EB5"/>
</svg>
