<svg width="1080" height="1048" viewBox="0 0 1080 1048" fill="none" xmlns="http://www.w3.org/2000/svg">
<path fill-rule="evenodd" clip-rule="evenodd" d="M161.923 1014.68C46.7775 960.957 -81.2451 897.932 -110.774 770.85C-141.275 639.583 -97.2286 468.911 9.56064 358.955C112.485 252.979 276.353 305.272 405.355 239.415C521.235 180.258 588.173 13.512 710.426 1.15805C832.878 -11.216 899.687 110.092 986.761 180.663C1083.62 259.163 1234.51 303.712 1246.8 435.876C1259.09 568.074 1148.97 705.543 1045.4 811.114C959.876 898.28 840.389 918.72 730.429 962.191C641.716 997.261 556.942 1031.7 466.245 1040.07C359.208 1049.95 252.138 1056.77 161.923 1014.68Z" fill="#2EFFC3"/>
</svg>
