<svg width="335" height="335" viewBox="0 0 335 335" fill="none" xmlns="http://www.w3.org/2000/svg">
<path d="M167.5 0L194.026 17.0608L224.788 10.1015L243.88 35.206L275.167 39.1876L284.521 69.3078L312.559 83.75L311.047 115.253L332.455 138.414L320.26 167.5L332.455 196.586L311.047 219.747L312.559 251.25L284.521 265.692L275.167 295.812L243.88 299.794L224.788 324.898L194.026 317.939L167.5 335L140.974 317.939L110.212 324.898L91.12 299.794L59.8331 295.812L50.479 265.692L22.4408 251.25L23.9526 219.747L2.54471 196.586L14.74 167.5L2.54471 138.414L23.9526 115.253L22.4408 83.75L50.479 69.3078L59.8331 39.1876L91.12 35.206L110.212 10.1015L140.974 17.0608L167.5 0Z" fill="#4F5892"/>
<circle cx="165" cy="168" r="117" fill="#2EFFC3"/>
<g clip-path="url(#clip0)">
<path d="M121.151 114.747L120.848 114.707C113.735 113.763 107.221 118.751 106.277 125.864L104.931 136.004C103.987 143.118 108.975 149.632 116.088 150.576L116.391 150.616C123.504 151.56 130.018 146.572 130.962 139.459L132.308 129.319C133.252 122.206 128.264 115.691 121.151 114.747Z" fill="white"/>
<path d="M232.864 164.226C229.535 163.784 227.323 160.718 227.745 157.54L228.207 154.059C229.01 148.005 224.81 142.52 218.756 141.716C212.4 140.873 206.914 145.073 206.111 151.127L205.649 154.608C205.207 157.937 202.141 160.149 198.963 159.727C195.633 159.285 193.422 156.219 193.844 153.041L194.306 149.56C195.973 136.998 207.459 128.204 220.02 129.871C232.885 131.579 241.83 143.084 240.163 155.646L239.701 159.127C239.128 162.285 236.194 164.668 232.864 164.226Z" fill="white"/>
<path d="M155.657 234.218C127.658 230.502 115.649 208.425 113.291 197.178C112.634 194.01 114.609 190.73 117.928 190.093C121.095 189.435 124.375 191.41 125.013 194.729C125.175 195.829 130.738 218.898 157.223 222.414C184.011 225.969 195.348 204.372 195.54 204.089C197.001 201.203 200.703 200 203.589 201.461C206.475 202.922 207.678 206.624 206.217 209.51C201.027 219.602 183.807 237.954 155.657 234.218Z" fill="white"/>
</g>
<defs>
<clipPath id="clip0">
<rect width="136.488" height="113.893" fill="white" transform="translate(107.984 113) rotate(7.55989)"/>
</clipPath>
</defs>
</svg>
