<svg width="848" height="656" viewBox="0 0 848 656" fill="none" xmlns="http://www.w3.org/2000/svg">
<path fill-rule="evenodd" clip-rule="evenodd" d="M426.391 6.0537C516.687 11.5921 604.613 30.8375 679.007 76.1916C754.681 122.326 832.398 181.962 846.259 262.026C859.643 339.339 792.899 406.473 747.855 473.898C712.55 526.745 672.789 576.21 614.196 609.391C558.138 641.136 493.049 657.097 426.391 655.941C360.737 654.803 304.447 625.311 243.89 602.97C161.17 572.452 43.8179 573.94 8.02348 501.592C-27.2323 430.334 63.764 359.981 86.5174 284.888C111.238 203.304 76.617 101.138 146.813 43.5493C217.48 -14.4267 329.99 0.140937 426.391 6.0537Z" fill="#2EFFC3"/>
<g clip-path="url(#clip0)">
<path d="M583.826 142.562L630.555 323.478C633.003 332.956 631.944 342.461 627.989 350.956C626.064 355.41 623.21 359.664 619.212 362.894C614.299 367.68 607.831 371.549 600.83 373.357L302.698 450.362C295.285 452.277 288.165 451.918 281.548 450.11C276.792 448.701 272.34 446.774 268.5 443.809C261.032 438.705 255.502 430.901 253.054 421.423L206.219 240.095C203.77 230.617 204.829 221.112 208.785 212.617C210.709 208.163 213.564 203.909 217.561 200.679C222.063 195.999 228.531 192.13 235.531 190.322L533.664 113.317C541.076 111.403 548.197 111.761 554.814 113.569C559.57 114.978 564.021 116.906 567.862 119.87C575.848 125.281 581.378 133.084 583.826 142.562Z" fill="white"/>
<path d="M628.095 351.368C626.171 355.822 623.316 360.076 619.319 363.307L448.916 300.497C444.336 308.274 436.54 313.804 427.481 316.144C418.01 318.591 408.816 317.009 401.149 312.835L281.655 450.522C276.898 449.113 272.447 447.186 268.606 444.221L390.451 303.729C387.739 300.033 385.333 295.819 384.056 290.874C382.779 285.928 382.431 281.182 383.426 276.53L208.785 212.617C210.709 208.163 213.564 203.909 217.561 200.678L387.964 263.488C392.544 255.711 400.34 250.181 409.399 247.841C418.87 245.394 428.064 246.976 435.731 251.15L555.226 113.463C559.982 114.872 564.433 116.799 568.274 119.764L446.429 260.256C449.141 263.952 451.547 268.166 452.824 273.111C454.101 278.057 454.449 282.803 453.454 287.455L628.095 351.368Z" fill="#4F5892"/>
<path d="M424.607 305.017C437.342 301.728 444.998 288.729 441.706 275.983C438.414 263.238 425.421 255.572 412.685 258.861C399.949 262.151 392.294 275.15 395.586 287.896C398.878 300.641 411.871 308.307 424.607 305.017Z" fill="#F8A7A0"/>
</g>
<defs>
<clipPath id="clip0">
<rect width="390" height="269" fill="white" transform="translate(196 200.533) rotate(-14.4825)"/>
</clipPath>
</defs>
</svg>
