<svg width="644" height="320" viewBox="0 0 644 320" fill="none" xmlns="http://www.w3.org/2000/svg">
<path d="M227.044 90.2485C229.706 89.8491 232.101 90.5147 234.097 92.112C234.496 92.3782 235.295 91.9789 235.428 91.4465C238.755 72.5449 248.203 56.7048 257.651 55.1075C263.773 54.0426 268.43 59.1008 270.826 67.7529C270.959 68.4185 272.156 68.0191 272.29 67.3536C272.955 63.7596 273.886 60.0326 275.084 56.1724C282.004 34.4755 295.711 17.0381 305.691 17.0381C315.672 17.0381 318.067 34.6086 311.28 56.1724V56.3055C299.304 104.757 294.38 149.882 296.243 191.944C297.308 214.706 271.624 238.267 245.808 238.133C235.295 238.133 226.512 234.007 221.588 226.686C204.688 201.528 200.296 169.715 203.756 133.908C203.756 133.243 203.889 132.577 204.022 131.912C206.418 110.614 216.664 91.9789 227.044 90.2485Z" fill="#2E3A87"/>
<path d="M36.8806 206.986C38.3444 206.986 39.6752 207.784 40.4736 208.982H140.945C141.876 208.982 142.675 209.781 142.675 210.713C142.675 211.644 141.876 212.443 140.945 212.443H40.7397C40.2074 213.907 38.6105 214.972 36.8806 214.972C35.1506 214.972 33.6868 213.907 33.0214 212.443H-53.2108C-48.154 219.897 -50.1501 231.345 -50.2832 231.877C-50.4163 232.809 -51.3478 233.474 -52.2793 233.341C-53.2108 233.208 -53.8763 232.276 -53.7432 231.345C-53.7432 231.212 -52.2793 222.293 -55.207 216.037C-55.4731 220.03 -56.6708 225.621 -60.2638 232.01C-60.7961 232.809 -61.8607 233.208 -62.6592 232.676C-63.1915 232.41 -63.5906 231.744 -63.5906 231.078C-63.5906 230.812 -63.4576 230.546 -63.3246 230.147C-59.0662 222.559 -58.5339 216.436 -58.667 213.508C-58.667 212.976 -58.5339 212.443 -58.4008 211.911C-58.1346 211.245 -57.8685 210.713 -57.3362 210.313C-56.937 209.914 -56.5378 209.648 -56.0055 209.382C-55.3401 209.115 -54.8078 208.982 -54.0093 208.982H33.4206C34.086 207.784 35.4167 206.986 36.8806 206.986Z" fill="#F8A7A0"/>
<path d="M79.9966 142.161C80.5289 138.434 85.3196 137.236 87.5819 140.165C97.4294 153.076 110.205 161.196 124.976 166.121C131.23 168.251 138.017 167.585 143.739 164.258C161.971 153.343 185.126 146.953 210.277 146.953C233.165 146.953 254.457 152.278 271.89 161.462C289.855 165.189 306.09 171.712 319.132 180.231C333.104 189.282 349.872 193.142 366.373 190.48L398.577 185.422C406.162 184.224 411.618 177.702 411.618 170.114V169.981C411.618 137.236 438.1 110.747 470.704 110.747H470.837C472.3 110.747 473.631 109.949 474.297 108.618C474.829 107.553 475.627 106.488 476.426 105.423C480.019 101.164 484.676 99.3 486.939 101.164C487.604 101.829 488.003 102.761 488.136 103.826C488.136 104.758 489.068 105.29 489.999 104.891C493.858 103.16 497.585 103.16 498.915 105.157C500.379 107.42 498.383 111.413 494.391 114.341C494.125 114.475 494.125 114.741 494.125 115.007C494.125 115.273 494.258 115.406 494.524 115.539C515.55 124.724 530.188 145.622 530.055 169.981C529.922 201.661 504.771 227.751 473.099 228.949C466.312 229.215 459.658 228.283 453.537 226.42C444.089 223.491 433.975 222.959 424.26 224.556L396.049 229.082C375.289 232.41 356.792 244.922 346.811 263.424C330.044 294.572 286.928 319.464 236.359 319.464C235.694 319.464 235.028 319.464 234.363 319.464C234.23 319.464 233.964 319.464 233.831 319.464C233.432 319.464 233.165 319.464 232.766 319.464C232.633 319.464 232.5 319.464 232.367 319.464C231.702 319.464 231.036 319.464 230.371 319.464H230.238C229.572 319.464 228.907 319.464 228.242 319.331C228.109 319.331 227.842 319.331 227.709 319.331C227.177 319.331 226.778 319.331 226.379 319.197C226.246 319.197 225.979 319.197 225.846 319.197C225.713 319.197 225.58 319.197 225.58 319.197C215.067 318.399 204.954 316.668 195.372 313.873H195.239C194.707 313.74 194.308 313.607 193.775 313.474C193.642 313.474 193.642 313.474 193.509 313.474C192.445 313.207 191.38 312.808 190.315 312.542C169.955 306.02 151.325 295.504 135.356 281.927C128.303 275.937 121.915 269.414 115.927 262.493C88.2473 229.615 73.6091 186.354 79.9966 142.161Z" fill="white"/>
<path d="M512.622 205.521C512.489 205.521 512.489 205.521 512.622 205.521C507.432 189.548 527.793 185.422 528.724 161.329C528.724 159.865 530.454 158.933 531.785 159.865C563.59 182.893 602.181 193.542 643.168 200.064C643.834 200.197 644.1 200.73 643.967 201.262C584.615 212.31 543.096 212.31 512.622 205.521Z" fill="#F8A7A0"/>
<path d="M643.833 201.395C643.7 201.661 643.567 201.928 643.168 202.061C597.257 213.641 554.674 218.3 517.812 210.18C515.417 209.648 513.42 207.918 512.622 205.522C543.096 212.31 584.615 212.31 643.833 201.395Z" fill="#E5655B"/>
<path d="M560.263 187.685C560.13 188.75 561.46 189.948 563.323 190.214C565.186 190.613 566.916 189.948 567.049 188.883C567.183 187.818 565.852 186.62 563.989 186.354C562.126 186.088 560.529 186.62 560.263 187.685Z" fill="#BD3653"/>
<path d="M479.465 171.555C476.692 164.906 479.832 157.267 486.48 154.493C493.127 151.72 500.763 154.861 503.536 161.51C506.309 168.159 503.169 175.798 496.521 178.571C489.874 181.345 482.238 178.203 479.465 171.555Z" fill="#4F5892"/>
<path d="M7.47132 238.134C8.93514 238.134 10.2659 238.932 11.0644 240.13H111.536C112.467 240.13 113.266 240.929 113.266 241.861C113.266 242.792 112.467 243.591 111.536 243.591H11.3305C10.7982 245.055 9.20129 246.12 7.47132 246.12C5.74135 246.12 4.27754 245.055 3.61217 243.591H-82.6202C-77.5634 251.045 -79.5595 262.493 -79.6925 263.025C-79.8256 263.957 -80.7571 264.622 -81.6887 264.489C-82.6202 264.356 -83.2855 263.424 -83.1524 262.493C-83.1524 262.36 -81.6887 253.441 -84.6163 247.185C-84.8825 251.178 -86.0801 256.769 -89.6731 263.158C-90.2054 263.957 -91.27 264.356 -92.0685 263.824C-92.6008 263.558 -93 262.892 -93 262.226C-93 261.96 -92.8669 261.694 -92.7338 261.295C-88.4754 253.707 -87.9431 247.584 -88.0762 244.656C-88.0762 244.123 -87.9431 243.591 -87.8101 243.059C-87.5439 242.393 -87.2778 241.861 -86.7455 241.461C-86.3462 241.062 -85.947 240.796 -85.4147 240.53C-84.7494 240.263 -84.2171 240.13 -83.4186 240.13H4.01142C4.67679 238.932 6.0075 238.134 7.47132 238.134Z" fill="#F8A7A0"/>
<path d="M179.802 78.801C182.331 78.2686 184.859 79.0672 187.521 80.7977C188.053 81.197 188.718 80.6645 188.585 80.1321C185.924 59.7663 190.315 42.7282 199.231 40.9978C204.954 39.9329 211.341 45.2573 216.398 54.575C216.797 55.2406 217.862 54.9744 217.729 54.1757C217.196 50.3155 216.93 46.3222 216.93 42.1958C216.93 18.9016 225.048 0 235.028 0C245.009 0 252.993 18.9016 253.127 42.0627V42.1958C256.72 94.3749 266.168 142.96 281.471 188.217C289.722 212.709 271.624 238.133 245.807 238C235.295 238 225.181 233.475 217.995 225.754C192.977 198.6 178.472 164.391 170.487 125.789C170.354 125.123 170.221 124.325 170.088 123.659C165.564 100.897 169.955 80.7977 179.802 78.801Z" fill="#4F5892"/>
</svg>
