<svg width="960" height="771" viewBox="0 0 960 771" fill="none" xmlns="http://www.w3.org/2000/svg">
<path fill-rule="evenodd" clip-rule="evenodd" d="M470.196 151.787C533.274 158.978 598.935 124.654 655.991 152.509C717.634 182.603 754.263 244.802 785.678 305.806C822.584 377.476 864.569 452.782 851.592 532.353C837.696 617.561 788.652 700.751 714.16 744.327C642.121 786.467 552.463 769.455 470.196 755.455C399.991 743.508 339.555 709.334 279.898 670.425C216.763 629.248 127.067 598.259 115.045 523.821C102.844 448.271 201.013 401.326 224.686 328.553C248.339 255.847 188.833 150.983 250.862 106.322C312.986 61.5931 394.151 143.118 470.196 151.787Z" fill="#2EFFC3"/>
<g clip-path="url(#clip0)">
<path d="M216.587 596.565C438.735 570.7 520.331 493.233 553.277 487.034C578.359 482.28 594.81 535.304 551.351 554.132C515.563 569.696 487.209 576.05 445.289 586.181C440.235 587.395 431.73 587.675 428.281 588.31C280.851 617.98 248.756 610.189 236.808 614.24C263.753 638.237 253.564 656.511 227.864 653.25C128.439 640.723 113.827 623.3 100.69 622.435C81.9188 621.18 72.3366 596.985 87.9316 597.256C125.093 597.697 147.2 579.086 179.433 555.048C192.236 545.564 198.374 547.145 215.396 545.87C231.565 544.609 247.357 562.242 238.964 574.767C230.232 587.781 229.948 590.115 218.453 595.081C216.072 596.089 216.272 595.624 216.587 596.565Z" fill="white"/>
<path d="M458.733 609.666C459.601 610.504 460.33 611.369 461.687 612.545C444.236 625.451 381.699 639.801 372.421 636.657C358.574 631.93 359.085 623.849 366.898 622.128C392.793 616.369 414.151 612.3 437.086 612.932C440.11 613.089 457.658 611.575 458.733 609.666Z" fill="#943538"/>
</g>
<g clip-path="url(#clip1)">
<path d="M817.548 274.177C817.424 274.218 735.828 324.632 637.728 353.826C623.974 357.893 565.409 368.734 551.297 370.861C518.038 376.068 495.968 378.592 469.619 368.391C451.697 361.34 437.566 342.775 452.776 330.97C471.385 316.55 475.039 324.407 548.633 310.045C750.221 270.737 715.149 281.743 812.871 241.705C825.438 236.518 800.578 243.103 774.975 238.142C745.46 232.535 735.958 206.294 770.952 200.522C801.902 195.381 809.12 194.813 873.225 187.515C887.622 185.843 898.168 192.554 906.708 203.207C927.707 229.817 891.704 244.279 879.087 291.839C872.95 314.672 865.727 310.17 858.1 316.217C847.407 324.633 831.37 319.161 825.804 307.54C822.796 301.666 818.49 280.861 817.548 274.177Z" fill="white"/>
<path d="M653.684 276.943C617.514 285.839 613.834 287.586 581.172 289.995C546.861 292.391 559.013 293.507 541.846 290.46C538.923 289.904 537.214 286.759 537.427 285.73C538.413 280.338 568.997 280.387 645.314 271.443C650.431 270.737 654.708 272.086 653.684 276.943Z" fill="#00C48C"/>
</g>
<g clip-path="url(#clip2)">
<path d="M189.899 512.149C187.241 513.235 183.931 512.727 181.781 510.503C180.743 509.48 156.502 486.092 116.278 502.531C75.6983 519.114 75.1382 553.672 75.1058 554.098C75.1366 558.222 71.7851 561.659 67.5893 561.513C63.4659 561.544 60.0283 558.192 60.1748 553.996C60.2318 552.112 60.8353 509.058 110.629 488.709C160.423 468.36 191.184 498.596 192.367 499.973C195.233 502.938 195.304 507.665 192.339 510.531C191.671 511.425 190.785 511.787 189.899 512.149Z" fill="white"/>
<path d="M28.9976 491.877C26.5168 492.891 23.7062 492.592 21.5244 490.795C18.1992 488.225 17.7016 483.465 20.0947 480.212L38.6504 456.292L8.82997 452.142C4.66655 451.569 1.68812 447.823 2.33384 443.836C2.90713 439.673 6.65306 436.695 10.8165 437.268L53.7312 443.098C56.3646 443.469 58.7236 445.194 59.7374 447.674C60.7513 450.155 60.4523 452.966 58.6556 455.148L32.1795 489.542C31.3336 490.509 30.238 491.37 28.9976 491.877Z" fill="white"/>
<path d="M170.76 433.943C169.519 434.45 168.311 434.53 166.854 434.506L124.044 428.426C121.41 428.054 119.051 426.33 118.037 423.849C117.024 421.369 117.323 418.558 119.119 416.376L145.668 382.159C148.238 378.833 152.998 378.336 156.25 380.729C159.576 383.299 160.073 388.059 157.68 391.312L139.124 415.232L169.122 419.31C173.285 419.883 176.087 423.701 175.513 427.865C175.037 430.748 173.241 432.929 170.76 433.943Z" fill="white"/>
</g>
<g clip-path="url(#clip3)">
<path d="M809.47 2.13969L809.099 2.0905C800.389 0.934577 792.413 7.04193 791.257 15.7517L789.609 28.1677C788.453 36.8775 794.56 44.854 803.27 46.0099L803.641 46.0591C812.35 47.215 820.327 41.1077 821.483 32.3979L823.131 19.9819C824.287 11.2721 818.179 3.29561 809.47 2.13969Z" fill="white"/>
<path d="M946.257 62.7237C942.18 62.1826 939.472 58.4288 939.989 54.5372L940.555 50.275C941.538 42.8625 936.395 36.1454 928.983 35.1616C921.2 34.1287 914.483 39.2717 913.499 46.6843L912.933 50.9465C912.392 55.0234 908.638 57.7311 904.747 57.2146C900.67 56.6735 897.962 52.9198 898.479 49.0282L899.044 44.7659C901.086 29.3849 915.149 18.6166 930.53 20.6579C946.282 22.7484 957.236 36.8369 955.194 52.218L954.629 56.4802C953.927 60.3472 950.334 63.2647 946.257 62.7237Z" fill="white"/>
<path d="M851.72 148.426C817.437 143.876 802.732 116.844 799.846 103.072C799.041 99.1933 801.459 95.1771 805.523 94.3963C809.402 93.591 813.418 96.0098 814.199 100.074C814.397 101.42 821.208 129.668 853.638 133.972C886.439 138.325 900.32 111.88 900.555 111.534C902.344 108 906.877 106.528 910.411 108.317C913.945 110.106 915.418 114.638 913.629 118.173C907.274 130.53 886.188 153.001 851.72 148.426Z" fill="white"/>
</g>
<defs>
<clipPath id="clip0">
<rect width="506.499" height="122.031" fill="white" transform="translate(73.7766 569.908) rotate(-10.4169)"/>
</clipPath>
<clipPath id="clip1">
<rect width="483.698" height="138.814" fill="white" transform="translate(434.627 309.327) rotate(-18.0325)"/>
</clipPath>
<clipPath id="clip2">
<rect width="168.265" height="138.02" fill="white" transform="translate(0 440.655) rotate(-22.2284)"/>
</clipPath>
<clipPath id="clip3">
<rect width="167.123" height="139.456" fill="white" transform="translate(793.347) rotate(7.55989)"/>
</clipPath>
</defs>
</svg>
