<svg width="1080" height="656" viewBox="0 0 1080 656" fill="none" xmlns="http://www.w3.org/2000/svg">
<mask id="mask0" mask-type="alpha" maskUnits="userSpaceOnUse" x="0" y="0" width="1080" height="656">
<rect width="1080" height="656" fill="#C4C4C4"/>
</mask>
<g mask="url(#mask0)">
<path fill-rule="evenodd" clip-rule="evenodd" d="M230.228 782.171C141.793 740.405 43.4503 691.449 20.1283 594.032C-3.96156 493.407 28.7809 363.051 109.89 279.514C188.064 199 313.781 239.948 412.142 190.284C500.497 145.672 550.782 18.4503 644.281 9.69071C737.933 0.916786 789.755 94.1264 856.8 148.625C931.377 209.247 1047.12 244.195 1057.27 345.403C1067.43 446.637 983.931 551.209 905.257 631.409C840.298 697.627 748.961 712.59 665.048 745.232C597.349 771.565 532.661 797.434 463.291 803.328C381.424 810.282 299.515 814.894 230.228 782.171Z" fill="#2EFFC3"/>
<g clip-path="url(#clip0)">
<path d="M343.825 155.089L326.432 120.944L343.825 113.721L353.178 148.03L359.906 108.632L387.308 117.496L361.054 155.253C361.054 155.253 361.382 217.469 380.581 249.48C399.779 281.491 431.776 334.35 369.751 374.076C307.725 413.802 244.551 367.017 229.784 331.723C223.548 316.949 226.502 302.339 232.081 290.355C238.644 276.073 249.474 264.254 262.765 256.21C282.456 244.063 325.611 211.888 343.825 155.089Z" fill="white"/>
<path d="M637.871 615.06C637.871 613.255 636.886 611.613 635.41 610.628V486.689C635.41 485.54 634.425 484.555 633.277 484.555C632.128 484.555 631.143 485.54 631.143 486.689V610.3C629.338 610.957 628.026 612.926 628.026 615.06C628.026 617.195 629.338 619 631.143 619.821V726.032C621.954 719.793 607.843 722.256 607.186 722.42C606.038 722.584 605.217 723.733 605.382 724.882C605.546 726.031 606.694 726.852 607.843 726.688C608.007 726.688 619.001 724.882 626.713 728.494C621.79 728.822 614.899 730.3 607.022 734.732C606.038 735.389 605.546 736.702 606.202 737.687C606.53 738.343 607.351 738.836 608.171 738.836C608.499 738.836 608.827 738.672 609.32 738.508C618.673 733.254 626.221 732.598 629.831 732.762C630.487 732.762 631.143 732.598 631.8 732.434C632.62 732.105 633.277 731.777 633.769 731.12C634.261 730.628 634.589 730.135 634.917 729.479C635.246 728.658 635.41 728.001 635.41 727.016V619.329C636.722 618.508 637.871 616.866 637.871 615.06Z" fill="#F8A7A0"/>
<path d="M861.195 283.953C860.539 279.357 854.632 277.879 851.842 281.491C839.7 297.414 823.947 307.428 805.733 313.502C798.021 316.128 789.653 315.307 782.597 311.203C760.117 297.742 731.565 289.863 700.553 289.863C672.329 289.863 646.075 296.429 624.58 307.756C624.416 307.756 624.252 307.756 624.252 307.756C606.038 311.532 588.973 297.906 588.973 279.357V198.426C588.973 185.13 593.567 172.325 602.1 162.147C612.437 149.507 618.673 133.42 618.673 115.855C618.673 75.4719 586.019 42.8044 545.653 42.8044C543.848 42.8044 542.207 41.8194 541.387 40.1778C540.731 38.8646 539.746 37.5513 538.762 36.238C534.331 30.985 528.588 28.6867 525.799 30.985C524.978 31.8057 524.486 32.9549 524.322 34.2681C524.322 35.4172 523.173 36.0739 522.025 35.5814C517.266 33.4473 512.672 33.4473 511.031 35.9097C509.226 38.7004 511.687 43.6251 516.61 47.2366C516.938 47.4008 516.938 47.7291 516.938 48.0574C516.938 48.3857 516.774 48.5499 516.446 48.7141C490.684 60.041 472.634 85.8139 472.634 115.855C472.634 141.628 487.566 165.431 509.062 178.399C525.963 188.577 536.136 207.127 536.136 226.826V293.146C536.136 323.187 532.854 353.228 525.142 382.12C523.665 387.537 523.009 393.118 523.009 398.864C523.009 451.723 588.152 502.776 668.555 502.776C669.376 502.776 670.196 502.776 671.017 502.776C671.181 502.776 671.509 502.776 671.673 502.776C672.165 502.776 672.494 502.776 672.986 502.776C673.15 502.776 673.314 502.776 673.478 502.776C674.299 502.776 675.119 502.776 675.939 502.776H676.103C676.924 502.776 677.744 502.776 678.565 502.612C678.729 502.612 679.057 502.612 679.221 502.612C679.878 502.612 680.37 502.612 680.862 502.448C681.026 502.448 681.354 502.448 681.518 502.448C681.683 502.448 681.847 502.448 681.847 502.448C694.81 501.463 707.28 499.329 719.095 495.881H719.259C719.915 495.717 720.407 495.553 721.064 495.389C721.228 495.389 721.228 495.389 721.392 495.389C722.705 495.061 724.017 494.568 725.33 494.24C750.435 486.196 773.408 473.228 793.098 456.483C801.795 449.096 809.671 441.053 817.055 432.516C850.857 391.641 869.071 338.289 861.195 283.953Z" fill="white"/>
<path d="M493.965 159.685C500.365 139.986 475.259 134.897 474.111 105.185C474.111 103.379 471.977 102.23 470.337 103.379C431.12 131.942 383.534 145.075 333.159 153.119C332.338 153.283 332.01 153.94 332.174 154.596C405.194 168.057 456.225 168.057 493.965 159.685Z" fill="#F8A7A0"/>
<path d="M332.174 154.596C332.338 154.925 332.502 155.253 332.995 155.417C389.441 169.863 442.113 175.444 487.566 165.431C490.52 164.774 492.981 162.64 493.965 159.685C456.225 168.057 405.194 168.057 332.174 154.596Z" fill="#E6655B"/>
<path d="M435.058 137.688C435.222 139.001 433.581 140.479 431.284 140.807C428.987 141.299 426.853 140.479 426.689 139.165C426.525 137.852 428.166 136.375 430.463 136.046C432.761 135.718 434.894 136.375 435.058 137.688Z" fill="#F8A7A0"/>
<path d="M520.056 127.674C528.937 127.674 536.136 120.472 536.136 111.587C536.136 102.702 528.937 95.4992 520.056 95.4992C511.174 95.4992 503.975 102.702 503.975 111.587C503.975 120.472 511.174 127.674 520.056 127.674Z" fill="#4F5892"/>
<path d="M728.448 615.06C728.448 613.255 727.463 611.613 725.986 610.628V486.689C725.986 485.54 725.002 484.555 723.853 484.555C722.705 484.555 721.72 485.54 721.72 486.689V610.3C719.915 610.957 718.602 612.926 718.602 615.06C718.602 617.195 719.915 619 721.72 619.821V726.032C712.531 719.793 698.419 722.256 697.763 722.42C696.615 722.584 695.794 723.733 695.958 724.882C696.122 726.031 697.271 726.852 698.419 726.688C698.584 726.688 709.577 724.882 717.29 728.494C712.367 728.822 705.475 730.3 697.599 734.732C696.615 735.389 696.122 736.702 696.779 737.687C697.107 738.343 697.927 738.836 698.748 738.836C699.076 738.836 699.404 738.672 699.896 738.508C709.249 733.254 716.797 732.598 720.407 732.762C721.064 732.762 721.72 732.598 722.376 732.434C723.197 732.105 723.853 731.777 724.345 731.12C724.838 730.628 725.166 730.135 725.494 729.479C725.822 728.658 725.986 728.001 725.986 727.016V619.329C727.463 618.508 728.448 616.866 728.448 615.06Z" fill="#F8A7A0"/>
<path d="M800.811 363.406C800.647 363.406 800.647 363.406 800.482 363.406C797.037 368.166 792.77 372.27 787.848 375.225C785.386 376.702 782.761 377.852 780.135 378.837C777.51 379.821 774.721 380.478 771.931 380.806C766.352 381.463 760.773 381.135 755.522 379.657C750.271 378.18 745.349 375.717 741.247 372.106L738.949 370.136L736.488 372.27C734.355 374.24 731.894 376.046 729.432 377.523C726.971 379.001 724.181 380.15 721.392 380.971C715.813 382.612 709.906 382.776 703.998 381.627C698.255 380.642 692.676 378.18 687.754 374.897C682.831 371.614 678.729 367.181 676.268 361.928L674.955 359.302L672.329 360.122C667.899 361.436 663.305 362.257 658.71 362.092C654.116 362.092 649.521 361.272 645.091 359.63C640.66 357.988 636.558 355.69 632.948 352.571C632.456 352.243 632.128 351.75 631.636 351.422L630.323 350.109C629.502 349.288 628.682 348.303 628.026 347.318C627.369 346.333 626.549 345.348 625.892 344.363C625.236 343.378 624.58 342.229 624.087 341.244C624.087 341.08 623.923 341.08 623.759 341.08C623.595 341.08 623.595 341.244 623.595 341.408C625.564 346.005 628.354 350.273 631.8 353.72C635.245 357.168 639.512 360.122 644.106 361.928C648.701 363.898 653.623 365.047 658.546 365.211C663.469 365.54 668.391 364.883 672.986 363.734C675.611 369.644 680.042 374.568 685.292 378.344C690.543 382.12 696.615 384.746 703.014 386.059C709.413 387.373 716.141 387.044 722.376 385.075C728.612 383.269 734.191 379.821 738.785 375.389C743.38 379.001 748.795 381.627 754.538 382.94C760.281 384.418 766.516 384.582 772.259 383.433C778.166 382.448 783.745 380.15 788.668 376.702C793.591 373.255 797.693 368.823 800.647 363.57C800.811 363.57 800.811 363.406 800.811 363.406Z" fill="#4F5892"/>
</g>
</g>
<defs>
<clipPath id="clip0">
<rect width="647" height="709" fill="white" transform="translate(216 30)"/>
</clipPath>
</defs>
</svg>
